{
	"asset":{
		"version":"2.0",
		"generator":"Maxon Cinema 4D 2024.5.1 (#200000219)"
	},
	"scenes":[{
		"nodes":[0,
		1,
		2]
	}],
	"nodes":[{
		"name":"Torus",
		"mesh":0,
		"translation":[-1.6214277744293213,
		1.0349764823913575,
		-1.1589820384979249],
		"rotation":[0.7181562185287476,
		-0.0030239338520914318,
		-0.0018865276360884309,
		-0.6958727836608887],
		"scale":[1.0,
		1.0,
		1.0]
	},
	{
		"name":"Boole",
		"children":[3]
	},
	{
		"name":"Sphere",
		"mesh":1,
		"translation":[-1.6355866193771363,
		1.0090025663375855,
		-1.7499638795852662],
		"rotation":[0.0,
		0.0,
		0.0,
		-1.0],
		"scale":[1.0,
		1.0,
		1.0]
	},
	{
		"name":"Cube",
		"mesh":2,
		"translation":[-1.6374386548995972,
		-0.45761746168136599,
		-2.3000903129577638],
		"rotation":[0.0,
		0.0,
		0.0,
		-1.0],
		"scale":[1.0,
		1.0,
		1.0]
	}],
	"meshes":[{
		"name":"Torus",
		"primitives":[{
			"attributes":{
				"POSITION":1,
				"NORMAL":2,
				"TEXCOORD_0":3
			},
			"indices":0
		}]
	},
	{
		"name":"Sphere",
		"primitives":[{
			"attributes":{
				"POSITION":5,
				"NORMAL":6,
				"TEXCOORD_0":7
			},
			"indices":4
		}]
	},
	{
		"name":"Cube",
		"primitives":[{
			"attributes":{
				"POSITION":9,
				"NORMAL":10,
				"TEXCOORD_0":11
			},
			"indices":8
		}]
	}],
	"accessors":[{
		"bufferView":0,
		"type":"SCALAR",
		"count":3072,
		"componentType":5123,
		"byteOffset":0,
		"min":[0],
		"max":[3071]
	},
	{
		"bufferView":1,
		"type":"VEC3",
		"count":3072,
		"componentType":5126,
		"byteOffset":0,
		"min":[-0.4423142671585083,
		-0.14743809401988984,
		-0.4423142671585083],
		"max":[0.4423142671585083,
		0.14743809401988984,
		0.4423142671585083]
	},
	{
		"bufferView":1,
		"type":"VEC3",
		"count":3072,
		"componentType":5126,
		"byteOffset":12,
		"min":[-1.0,
		-0.9999788999557495,
		-1.0],
		"max":[1.0,
		0.9999788999557495,
		1.0]
	},
	{
		"bufferView":1,
		"type":"VEC2",
		"count":3072,
		"componentType":5126,
		"byteOffset":24,
		"min":[0.0,
		0.0],
		"max":[1.0,
		1.0]
	},
	{
		"bufferView":2,
		"type":"SCALAR",
		"count":2880,
		"componentType":5123,
		"byteOffset":0,
		"min":[0],
		"max":[2879]
	},
	{
		"bufferView":3,
		"type":"VEC3",
		"count":2880,
		"componentType":5126,
		"byteOffset":0,
		"min":[-0.6515566110610962,
		-0.6515566110610962,
		-0.6515566110610962],
		"max":[0.6515566110610962,
		0.6515566110610962,
		0.6515566110610962]
	},
	{
		"bufferView":3,
		"type":"VEC3",
		"count":2880,
		"componentType":5126,
		"byteOffset":12,
		"min":[-1.0,
		-1.0,
		-1.0],
		"max":[1.0,
		1.0,
		1.0]
	},
	{
		"bufferView":3,
		"type":"VEC2",
		"count":2880,
		"componentType":5126,
		"byteOffset":24,
		"min":[0.0,
		0.0],
		"max":[1.0,
		1.0]
	},
	{
		"bufferView":4,
		"type":"SCALAR",
		"count":1365,
		"componentType":5123,
		"byteOffset":0,
		"min":[0],
		"max":[1364]
	},
	{
		"bufferView":5,
		"type":"VEC3",
		"count":1365,
		"componentType":5126,
		"byteOffset":0,
		"min":[-0.5425026416778565,
		-1.5053049325942994,
		-0.2957810163497925],
		"max":[0.5425026416778565,
		1.5053049325942994,
		0.4207810163497925]
	},
	{
		"bufferView":5,
		"type":"VEC3",
		"count":1365,
		"componentType":5126,
		"byteOffset":12,
		"min":[-0.9874683022499085,
		-1.0,
		-1.0],
		"max":[1.0,
		0.9985086917877197,
		0.9936867356300354]
	},
	{
		"bufferView":5,
		"type":"VEC2",
		"count":1365,
		"componentType":5126,
		"byteOffset":24,
		"min":[0.0,
		0.0],
		"max":[1.0,
		1.0]
	}],
	"bufferViews":[{
		"buffer":0,
		"byteOffset":0,
		"byteLength":6144,
		"target":34963
	},
	{
		"buffer":0,
		"byteOffset":6144,
		"byteLength":98304,
		"target":34962,
		"byteStride":32
	},
	{
		"buffer":1,
		"byteOffset":0,
		"byteLength":5760,
		"target":34963
	},
	{
		"buffer":1,
		"byteOffset":5760,
		"byteLength":92160,
		"target":34962,
		"byteStride":32
	},
	{
		"buffer":2,
		"byteOffset":0,
		"byteLength":2730,
		"target":34963
	},
	{
		"buffer":2,
		"byteOffset":2732,
		"byteLength":43680,
		"target":34962,
		"byteStride":32
	}],
	"buffers":[{
		"uri":"data:application/octet-stream;base64,",
		"byteLength":104448
	},
	{
		"uri":"data:application/octet-stream;base64,",
		"byteLength":97920
	},
	{
		"uri":"data:application/octet-stream;base64,",
		"byteLength":46412
	}]
}